REM MD5 96afa43d8bddaa4afe5d64db603ad4d4
FILE "NHL Powerplay '96 (USA).bin" BINARY
  TRACK 01 MODE2/2352
    INDEX 01 00:00:00
  TRACK 02 AUDIO
    INDEX 00 18:38:45
    INDEX 01 18:40:45
  TRACK 03 AUDIO
    INDEX 00 20:06:14
    INDEX 01 20:08:14
REM LEADOUT 22:32:56
